<svg width="32" height="12" viewBox="0 0 32 12" fill="none" xmlns="http://www.w3.org/2000/svg">
<path d="M0.0113636 12V0.363636H4.67045C5.52652 0.363636 6.24053 0.49053 6.8125 0.744318C7.38447 0.998106 7.81439 1.35038 8.10227 1.80114C8.39015 2.24811 8.53409 2.76326 8.53409 3.34659C8.53409 3.80114 8.44318 4.20076 8.26136 4.54545C8.07955 4.88636 7.82955 5.16667 7.51136 5.38636C7.19697 5.60227 6.83712 5.75568 6.43182 5.84659V5.96023C6.875 5.97917 7.28977 6.10417 7.67614 6.33523C8.06629 6.56629 8.38258 6.89015 8.625 7.30682C8.86742 7.7197 8.98864 8.21212 8.98864 8.78409C8.98864 9.40152 8.83523 9.95265 8.52841 10.4375C8.22538 10.9186 7.77652 11.2992 7.18182 11.5795C6.58712 11.8598 5.85417 12 4.98295 12H0.0113636ZM2.47159 9.98864H4.47727C5.16288 9.98864 5.66288 9.85795 5.97727 9.59659C6.29167 9.33144 6.44886 8.97917 6.44886 8.53977C6.44886 8.2178 6.37121 7.93371 6.21591 7.6875C6.06061 7.44129 5.83902 7.24811 5.55114 7.10795C5.26705 6.9678 4.92803 6.89773 4.53409 6.89773H2.47159V9.98864ZM2.47159 5.23295H4.29545C4.63258 5.23295 4.93182 5.17424 5.19318 5.05682C5.45833 4.93561 5.66667 4.76515 5.81818 4.54545C5.97348 4.32576 6.05114 4.0625 6.05114 3.75568C6.05114 3.33523 5.90152 2.99621 5.60227 2.73864C5.30682 2.48106 4.88636 2.35227 4.34091 2.35227H2.47159V5.23295ZM20.3224 0.363636V12H18.1974L13.1349 4.67614H13.0497V12H10.5895V0.363636H12.7486L17.7713 7.68182H17.8736V0.363636H20.3224ZM22.3551 12V0.363636H27.0142C27.8703 0.363636 28.5843 0.49053 29.1562 0.744318C29.7282 0.998106 30.1581 1.35038 30.446 1.80114C30.7339 2.24811 30.8778 2.76326 30.8778 3.34659C30.8778 3.80114 30.7869 4.20076 30.6051 4.54545C30.4233 4.88636 30.1733 5.16667 29.8551 5.38636C29.5407 5.60227 29.1809 5.75568 28.7756 5.84659V5.96023C29.2188 5.97917 29.6335 6.10417 30.0199 6.33523C30.41 6.56629 30.7263 6.89015 30.9688 7.30682C31.2112 7.7197 31.3324 8.21212 31.3324 8.78409C31.3324 9.40152 31.179 9.95265 30.8722 10.4375C30.5691 10.9186 30.1203 11.2992 29.5256 11.5795C28.9309 11.8598 28.1979 12 27.3267 12H22.3551ZM24.8153 9.98864H26.821C27.5066 9.98864 28.0066 9.85795 28.321 9.59659C28.6354 9.33144 28.7926 8.97917 28.7926 8.53977C28.7926 8.2178 28.715 7.93371 28.5597 7.6875C28.4044 7.44129 28.1828 7.24811 27.8949 7.10795C27.6108 6.9678 27.2718 6.89773 26.8778 6.89773H24.8153V9.98864ZM24.8153 5.23295H26.6392C26.9763 5.23295 27.2756 5.17424 27.5369 5.05682C27.8021 4.93561 28.0104 4.76515 28.1619 4.54545C28.3172 4.32576 28.3949 4.0625 28.3949 3.75568C28.3949 3.33523 28.2453 2.99621 27.946 2.73864C27.6506 2.48106 27.2301 2.35227 26.6847 2.35227H24.8153V5.23295Z" fill="#E4E4E4"/>
</svg>
